<svg width="16" height="16" viewBox="0 0 16 16" fill="none" xmlns="http://www.w3.org/2000/svg">
<path d="M14.9534 3.5L11.7478 3.5L11.2656 1.8125C11.1164 1.29088 10.8018 0.831958 10.3691 0.504996C9.93643 0.178034 9.40919 0.000784051 8.86698 3.49325e-07L7.13302 3.56556e-07C6.58995 -0.000301619 6.06157 0.176449 5.62788 0.503492C5.19418 0.830535 4.87879 1.29006 4.72945 1.8125L4.25223 3.5L1.04664 3.5C0.792202 3.49496 0.544914 3.5844 0.352507 3.75107C0.1601 3.91774 0.0362153 4.14981 0.00476282 4.4025C-0.00887541 4.54178 0.00685483 4.68237 0.0509361 4.81519C0.0950173 4.948 0.166468 5.07008 0.260667 5.17352C0.354866 5.27697 0.469716 5.35948 0.597789 5.41572C0.725862 5.47195 0.864306 5.50067 1.00417 5.5L1.75372 5.5C1.75337 5.57768 1.75754 5.65531 1.76621 5.7325L2.71315 13.79C2.78423 14.399 3.07651 14.9606 3.53441 15.3681C3.9923 15.7756 4.58389 16.0005 5.19667 16L10.8033 16C11.4153 15.9999 12.006 15.7751 12.4633 15.3682C12.9206 14.9613 13.2128 14.4006 13.2844 13.7925L14.2313 5.735C14.2409 5.65703 14.2459 5.57856 14.2463 5.5L14.9958 5.5C15.1357 5.50067 15.2741 5.47195 15.4022 5.41572C15.5303 5.35948 15.6451 5.27697 15.7393 5.17352C15.8335 5.07008 15.905 4.948 15.9491 4.81519C15.9931 4.68237 16.0089 4.54178 15.9952 4.4025C15.9638 4.14981 15.8399 3.91774 15.6475 3.75107C15.4551 3.5844 15.2078 3.49496 14.9534 3.5ZM6.6508 2.3625C6.68074 2.25777 6.74405 2.16568 6.83109 2.10025C6.91813 2.03481 7.02415 1.99961 7.13302 2L8.86948 2C8.97792 2.00016 9.08337 2.03561 9.16991 2.101C9.25645 2.16639 9.31937 2.25818 9.3492 2.3625L9.674 3.5L6.326 3.5L6.6508 2.3625ZM11.8652 8.75L11.6303 10.75L11.3005 13.5575C11.2864 13.6799 11.2275 13.7928 11.1353 13.8744C11.0431 13.9561 10.924 14.0008 10.8008 14L5.19667 14C5.07352 14.0008 4.95441 13.9561 4.86219 13.8744C4.76996 13.7928 4.71113 13.6799 4.69697 13.5575L4.36966 10.75L4.1348 8.75L3.75253 5.5L12.2475 5.5L11.8652 8.75Z" fill="#D83B3B"/>
</svg>
