<svg width="33" height="30" viewBox="0 0 33 30" fill="none" xmlns="http://www.w3.org/2000/svg">
<path d="M0.765625 14.8841C0.765625 7.03867 7.12558 0.678711 14.971 0.678711L17.9673 0.678711C25.8127 0.678711 32.1726 7.03867 32.1726 14.8841C32.1726 22.7295 25.8126 29.0894 17.9672 29.0894H14.971C7.12558 29.0894 0.765625 22.7295 0.765625 14.8841Z" fill="white"/>
<path d="M21.2623 12.0762H19.0514L18.7188 11.0234C18.616 10.6979 18.399 10.4116 18.1006 10.2076C17.8022 10.0037 17.4386 9.89307 17.0646 9.89258H15.8687C15.4942 9.89239 15.1298 10.0027 14.8307 10.2067C14.5315 10.4107 14.314 10.6974 14.211 11.0234L13.8819 12.0762H11.6711C11.4956 12.073 11.325 12.1288 11.1923 12.2328C11.0596 12.3368 10.9742 12.4816 10.9525 12.6392C10.9431 12.7261 10.9539 12.8138 10.9843 12.8967C11.0148 12.9796 11.064 13.0557 11.129 13.1203C11.194 13.1848 11.2732 13.2363 11.3615 13.2714C11.4498 13.3064 11.5453 13.3244 11.6418 13.3239H12.1587C12.1585 13.3724 12.1614 13.4208 12.1673 13.469L12.8204 18.4959C12.8694 18.8759 13.071 19.2263 13.3868 19.4805C13.7026 19.7347 14.1106 19.875 14.5333 19.8747H18.4001C18.8221 19.8747 19.2295 19.7344 19.5449 19.4806C19.8603 19.2267 20.0618 18.8769 20.1112 18.4975L20.7643 13.4706C20.7709 13.4219 20.7743 13.373 20.7746 13.3239H21.2915C21.388 13.3244 21.4835 13.3064 21.5718 13.2714C21.6601 13.2363 21.7394 13.1848 21.8043 13.1203C21.8693 13.0557 21.9186 12.9796 21.949 12.8967C21.9794 12.8138 21.9902 12.7261 21.9808 12.6392C21.9591 12.4816 21.8737 12.3368 21.741 12.2328C21.6083 12.1288 21.4377 12.073 21.2623 12.0762ZM15.5361 11.3665C15.5568 11.3012 15.6005 11.2437 15.6605 11.2029C15.7205 11.1621 15.7936 11.1401 15.8687 11.1403H17.0663C17.1411 11.1404 17.2138 11.1626 17.2735 11.2034C17.3332 11.2442 17.3766 11.3014 17.3972 11.3665L17.6212 12.0762H15.3121L15.5361 11.3665ZM18.743 18.3509C18.7332 18.4273 18.6926 18.4977 18.629 18.5486C18.5654 18.5996 18.4833 18.6275 18.3983 18.627H14.5333C14.4483 18.6275 14.3662 18.5996 14.3026 18.5486C14.239 18.4977 14.1984 18.4273 14.1886 18.3509L13.5373 13.3239H19.3961L18.743 18.3509Z" fill="#D83B3B"/>
</svg>
