<svg width="15" height="19" viewBox="0 0 15 19" fill="none" xmlns="http://www.w3.org/2000/svg">
<path d="M8.49219 1.8211C8.49219 1.26881 8.04447 0.821098 7.49219 0.821098C6.9399 0.821098 6.49219 1.26881 6.49219 1.8211L8.49219 1.8211ZM6.78508 13.4229C7.1756 13.8135 7.80877 13.8135 8.19929 13.4229L14.5633 7.05897C14.9538 6.66844 14.9538 6.03528 14.5633 5.64476C14.1727 5.25423 13.5396 5.25423 13.149 5.64475L7.49219 11.3016L1.83533 5.64475C1.44481 5.25423 0.811645 5.25423 0.42112 5.64475C0.030596 6.03528 0.0305959 6.66844 0.42112 7.05897L6.78508 13.4229ZM2.55469 13.3398C2.55469 12.7876 2.10697 12.3398 1.55469 12.3398C1.0024 12.3398 0.554688 12.7876 0.554688 13.3398L2.55469 13.3398ZM1.55469 17.947L0.554688 17.947L0.554687 18.947H1.55469V17.947ZM13.4384 17.947V18.947H14.4384V17.947H13.4384ZM14.4384 13.3398C14.4384 12.7876 13.9907 12.3398 13.4384 12.3398C12.8861 12.3398 12.4384 12.7876 12.4384 13.3398H14.4384ZM6.49219 1.8211L6.49219 12.7158L8.49219 12.7158L8.49219 1.8211L6.49219 1.8211ZM0.554688 13.3398L0.554688 17.947L2.55469 17.947L2.55469 13.3398L0.554688 13.3398ZM14.4384 17.947V13.3398H12.4384V17.947H14.4384ZM1.55469 18.947H13.4384V16.947H1.55469V18.947Z" fill="black"/>
</svg>
