<svg width="17" height="13" viewBox="0 0 17 13" fill="none" xmlns="http://www.w3.org/2000/svg">
<path d="M8.07422 8.4375C8.67096 8.4375 9.24325 8.20045 9.66521 7.77849C10.0872 7.35653 10.3242 6.78424 10.3242 6.1875C10.3242 5.59076 10.0872 5.01847 9.66521 4.59651C9.24325 4.17455 8.67096 3.9375 8.07422 3.9375C7.47748 3.9375 6.90519 4.17455 6.48323 4.59651C6.06127 5.01847 5.82422 5.59076 5.82422 6.1875C5.82422 6.78424 6.06127 7.35653 6.48323 7.77849C6.90519 8.20045 7.47748 8.4375 8.07422 8.4375Z" fill="#989BAC"/>
<path fill-rule="evenodd" clip-rule="evenodd" d="M0.067268 5.77275C1.18327 2.4195 4.34602 0 8.07577 0C11.8033 0 14.9645 2.41725 16.082 5.7675C16.172 6.039 16.172 6.3315 16.082 6.60225C14.9668 9.9555 11.8033 12.375 8.07427 12.375C4.34677 12.375 1.18477 9.95775 0.068018 6.6075C-0.0221711 6.33656 -0.0229211 6.04369 0.067268 5.77275ZM12.0125 6.1875C12.0125 7.23179 11.5977 8.23331 10.8593 8.97173C10.1208 9.71016 9.11931 10.125 8.07502 10.125C7.03073 10.125 6.02921 9.71016 5.29078 8.97173C4.55236 8.23331 4.13752 7.23179 4.13752 6.1875C4.13752 5.14321 4.55236 4.14169 5.29078 3.40327C6.02921 2.66484 7.03073 2.25 8.07502 2.25C9.11931 2.25 10.1208 2.66484 10.8593 3.40327C11.5977 4.14169 12.0125 5.14321 12.0125 6.1875Z" fill="#989BAC"/>
</svg>
