<svg width="20" height="20" viewBox="0 0 20 20" fill="none" xmlns="http://www.w3.org/2000/svg">
<path d="M10.0742 12.4375C10.671 12.4375 11.2433 12.2004 11.6652 11.7785C12.0872 11.3565 12.3242 10.7842 12.3242 10.1875C12.3242 9.59076 12.0872 9.01847 11.6652 8.59651C11.2433 8.17455 10.671 7.9375 10.0742 7.9375C9.47748 7.9375 8.90519 8.17455 8.48323 8.59651C8.06127 9.01847 7.82422 9.59076 7.82422 10.1875C7.82422 10.7842 8.06127 11.3565 8.48323 11.7785C8.90519 12.2004 9.47748 12.4375 10.0742 12.4375Z" fill="#989BAC"/>
<path fill-rule="evenodd" clip-rule="evenodd" d="M2.06727 9.77275C3.18327 6.4195 6.34602 4 10.0758 4C13.8033 4 16.9645 6.41725 18.082 9.7675C18.172 10.039 18.172 10.3315 18.082 10.6023C16.9668 13.9555 13.8033 16.375 10.0743 16.375C6.34677 16.375 3.18477 13.9578 2.06802 10.6075C1.97783 10.3366 1.97708 10.0437 2.06727 9.77275ZM14.0125 10.1875C14.0125 11.2318 13.5977 12.2333 12.8593 12.9717C12.1208 13.7102 11.1193 14.125 10.075 14.125C9.03073 14.125 8.02921 13.7102 7.29079 12.9717C6.55236 12.2333 6.13752 11.2318 6.13752 10.1875C6.13752 9.14321 6.55236 8.14169 7.29079 7.40327C8.02921 6.66484 9.03073 6.25 10.075 6.25C11.1193 6.25 12.1208 6.66484 12.8593 7.40327C13.5977 8.14169 14.0125 9.14321 14.0125 10.1875Z" fill="#989BAC"/>
<path d="M19.9365 1.89746L18.0391 0L0.0810528 17.958L1.97851 19.8555L19.9365 1.89746Z" fill="#989BAC"/>
</svg>
