<svg width="21" height="21" viewBox="0 0 21 21" fill="none" xmlns="http://www.w3.org/2000/svg">
<path d="M2.42296 21H14.5384C15.8711 21 16.9615 19.9096 16.9615 18.5769V16.1538H18.5769C19.9096 16.1538 21 15.0634 21 13.7307V4.84613C21 3.51345 19.9096 2.42305 18.5769 2.42305H12.9796C12.7131 2.42305 12.4546 2.28574 12.3092 2.0596L11.655 1.07422C11.2027 0.40382 10.4516 0 9.63577 0H6.46158C5.12889 0 4.03849 1.0904 4.03849 2.42308V4.84615H2.42309C1.0904 4.84615 0 5.93655 0 7.26923V18.5769C0 19.9096 1.09028 21 2.42296 21ZM6.46145 1.61536H9.63563C9.90216 1.61536 10.1606 1.75267 10.306 1.97881L10.9603 2.96419C11.4126 3.63459 12.1637 4.03841 12.9795 4.03841H18.5768C19.021 4.03841 19.3845 4.40186 19.3845 4.8461V13.7307C19.3845 14.175 19.021 14.5384 18.5768 14.5384H16.9614V9.69226C16.9614 8.35958 15.871 7.26918 14.5383 7.26918H8.94102C8.67449 7.26918 8.41603 7.13187 8.27061 6.90573L7.61639 5.92035C7.18023 5.25804 6.44524 4.87035 5.65367 4.84613V2.42305C5.65367 1.97881 6.0172 1.61536 6.46145 1.61536ZM1.61527 7.26921C1.61527 6.82496 1.97872 6.46151 2.42296 6.46151H5.59715C5.86368 6.46151 6.12214 6.59882 6.26755 6.82496L6.92177 7.81035C7.37408 8.48881 8.12523 8.89265 8.94102 8.89265H14.5383C14.9825 8.89265 15.346 9.2561 15.346 9.70035V18.585C15.346 19.0292 14.9825 19.3927 14.5383 19.3927H2.42283C1.97859 19.3927 1.61514 19.0292 1.61514 18.585L1.61527 7.26921Z" fill="black"/>
</svg>
