<svg width="17" height="18" viewBox="0 0 17 18" fill="none" xmlns="http://www.w3.org/2000/svg">
<path d="M12 9.75C12.4142 9.75 12.75 9.41421 12.75 9C12.75 8.58579 12.4142 8.25 12 8.25L12 9.75ZM0.46967 8.46967C0.176777 8.76256 0.176777 9.23744 0.46967 9.53033L5.24264 14.3033C5.53553 14.5962 6.01041 14.5962 6.3033 14.3033C6.59619 14.0104 6.59619 13.5355 6.3033 13.2426L2.06066 9L6.3033 4.75736C6.59619 4.46447 6.59619 3.98959 6.3033 3.6967C6.01041 3.40381 5.53553 3.40381 5.24264 3.6967L0.46967 8.46967ZM12 8.25L1 8.25L1 9.75L12 9.75L12 8.25Z" fill="#016B54"/>
<path d="M13 17L16 17L16 1L13 1" stroke="#016B54" stroke-width="1.5" stroke-linecap="round"/>
</svg>
