<svg width="28" height="18" viewBox="0 0 28 18" fill="none" xmlns="http://www.w3.org/2000/svg">
<path d="M2.7316 7.58429C2.7316 9.04163 3.91752 10.2275 5.37486 10.2275C6.8322 10.2275 8.01812 9.04163 8.01812 7.58429C8.01812 6.12586 6.8322 4.94103 5.37486 4.94103C3.91752 4.93994 2.7316 6.12586 2.7316 7.58429ZM6.71015 7.58429C6.71015 8.32004 6.11066 8.91955 5.37489 8.91955C4.63806 8.91955 4.03963 8.32006 4.03963 7.58429C4.03963 6.84746 4.63912 6.24903 5.37489 6.24903C6.11172 6.24794 6.71015 6.84743 6.71015 7.58429Z" fill="black"/>
<path d="M22.306 11.1398H21.8787C21.0645 11.1398 20.2764 11.3295 19.5646 11.6881C18.2185 9.93755 16.1081 8.80169 13.7341 8.80169C11.36 8.80169 9.24991 9.93746 7.90355 11.6881C7.19177 11.3295 6.40371 11.1398 5.58947 11.1398H5.16221C3.78118 11.1398 2.48515 11.6761 1.51293 12.6484C0.537374 13.6239 0 14.9199 0 16.2976C0 17.2372 0.765183 18.0024 1.70476 18.0024H8.2089C8.21217 18.0024 8.21435 18.0035 8.21762 18.0035H19.2517C19.255 18.0035 19.2571 18.0024 19.2604 18.0024H25.7634C26.2245 18.0024 26.654 17.8226 26.9613 17.5065C27.2829 17.1925 27.4682 16.7522 27.4682 16.2977C27.4682 13.4529 25.1519 11.1398 22.306 11.1398ZM13.7341 10.1098C17.0706 10.1098 19.7859 12.8239 19.7859 16.1616C19.7859 16.4548 19.5483 16.6924 19.2562 16.6957L18.4256 16.6946C18.4224 16.6946 18.4202 16.6957 18.4169 16.6957H9.05178C9.04851 16.6957 9.04633 16.6946 9.04306 16.6946H8.21356C7.92143 16.6924 7.68383 16.4548 7.68383 16.1605C7.68274 12.824 10.3975 10.1098 13.7341 10.1098ZM1.30822 16.2978C1.30822 15.2699 1.70934 14.302 2.43747 13.5728C3.16342 12.8468 4.13132 12.4479 5.16246 12.4479H5.58972C6.15215 12.4479 6.69717 12.57 7.19529 12.7989C6.67427 13.8082 6.37452 14.9494 6.37452 16.1616C6.37452 16.348 6.41049 16.5256 6.46281 16.6957L1.70491 16.6946C1.48582 16.6946 1.30822 16.5158 1.30822 16.2978ZM26.037 16.5822C25.9661 16.6542 25.8691 16.6945 25.7634 16.6945H21.0055C21.0578 16.5245 21.0938 16.3479 21.0938 16.1604C21.0938 14.9483 20.794 13.8071 20.273 12.7977C20.7712 12.5688 21.3162 12.4467 21.8786 12.4467H22.3059C24.4314 12.4467 26.16 14.1733 26.16 16.2966C26.16 16.4013 26.1187 16.5005 26.037 16.5822Z" fill="black"/>
<path d="M22.0933 10.2276C23.5518 10.2276 24.7366 9.04172 24.7366 7.58438C24.7366 6.12595 23.5507 4.94112 22.0933 4.94112C20.636 4.94112 19.4501 6.12703 19.4501 7.58438C19.4501 9.04172 20.636 10.2276 22.0933 10.2276ZM22.0933 6.24797C22.8302 6.24797 23.4286 6.84746 23.4286 7.58323C23.4286 8.319 22.8291 8.91849 22.0933 8.91849C21.3576 8.91849 20.7581 8.319 20.7581 7.58323C20.7581 6.84746 21.3565 6.24797 22.0933 6.24797Z" fill="black"/>
<path d="M10.2548 3.47935C10.2548 5.39774 11.8157 6.95869 13.7341 6.95869C15.6526 6.95869 17.2135 5.3978 17.2135 3.47935C17.2135 1.56089 15.6526 0 13.7341 0C11.8157 0 10.2548 1.56089 10.2548 3.47935ZM15.9053 3.47935C15.9053 4.67726 14.9309 5.65061 13.7341 5.65061C12.5361 5.65061 11.5628 4.67615 11.5628 3.47935C11.5628 2.28252 12.5373 1.30808 13.7341 1.30808C14.932 1.30808 15.9053 2.28146 15.9053 3.47935Z" fill="black"/>
</svg>
