<svg width="41" height="41" viewBox="0 0 41 41" fill="none" xmlns="http://www.w3.org/2000/svg">
<path d="M0 8C0 3.58172 3.58172 0 8 0H33C37.4183 0 41 3.58172 41 8V33C41 37.4183 37.4183 41 33 41H8C3.58172 41 0 37.4183 0 33V8Z" fill="#D83B3B"/>
<path d="M34 20C34 27.1797 28.1797 33 21 33C13.8203 33 8 27.1797 8 20C8 12.8203 13.8203 7 21 7C28.1797 7 34 12.8203 34 20Z" fill="white"/>
<path d="M15.3125 16.3125C15.3125 15.2079 16.2079 14.3125 17.3125 14.3125H24.6875C25.7921 14.3125 26.6875 15.2079 26.6875 16.3125V23.6875C26.6875 24.7921 25.7921 25.6875 24.6875 25.6875H17.3125C16.2079 25.6875 15.3125 24.7921 15.3125 23.6875V16.3125Z" fill="#D83B3B"/>
</svg>
