<svg width="41" height="41" viewBox="0 0 41 41" fill="none" xmlns="http://www.w3.org/2000/svg">
<path d="M0 8C0 3.58172 3.58172 0 8 0H33C37.4183 0 41 3.58172 41 8V33C41 37.4183 37.4183 41 33 41H8C3.58172 41 0 37.4183 0 33V8Z" fill="#D8913B" fill-opacity="0.89"/>
<path d="M34 20C34 27.1797 28.1797 33 21 33C13.8203 33 8 27.1797 8 20C8 12.8203 13.8203 7 21 7C28.1797 7 34 12.8203 34 20Z" fill="white"/>
<path d="M15 16C15 14.8954 15.8954 14 17 14C18.1046 14 19 14.8954 19 16V24C19 25.1046 18.1046 26 17 26C15.8954 26 15 25.1046 15 24V16Z" fill="#D8913B" fill-opacity="0.89"/>
<path d="M23 16C23 14.8954 23.8954 14 25 14C26.1046 14 27 14.8954 27 16V24C27 25.1046 26.1046 26 25 26C23.8954 26 23 25.1046 23 24V16Z" fill="#D8913B" fill-opacity="0.89"/>
</svg>
