<svg width="16" height="19" viewBox="0 0 16 19" fill="none" xmlns="http://www.w3.org/2000/svg">
<path d="M7.31124 12.3473C7.31124 12.8996 7.75895 13.3473 8.31124 13.3473C8.86352 13.3473 9.31124 12.8996 9.31124 12.3473L7.31124 12.3473ZM9.01834 1.24016C8.62782 0.849635 7.99465 0.849635 7.60413 1.24016L1.24017 7.60412C0.849644 7.99464 0.849644 8.62781 1.24017 9.01833C1.63069 9.40886 2.26386 9.40886 2.65438 9.01833L8.31124 3.36148L13.9681 9.01833C14.3586 9.40886 14.9918 9.40886 15.3823 9.01833C15.7728 8.62781 15.7728 7.99464 15.3823 7.60412L9.01834 1.24016ZM3.80859 13.1473C3.80859 12.595 3.36088 12.1473 2.80859 12.1473C2.25631 12.1473 1.80859 12.595 1.80859 13.1473L3.80859 13.1473ZM2.80859 17.9473L1.80859 17.9473L1.80859 18.9473H2.80859V17.9473ZM13.8086 17.9473V18.9473H14.8086V17.9473H13.8086ZM14.8086 13.1473C14.8086 12.595 14.3609 12.1473 13.8086 12.1473C13.2563 12.1473 12.8086 12.595 12.8086 13.1473H14.8086ZM9.31124 12.3473L9.31124 1.94727L7.31124 1.94727L7.31124 12.3473L9.31124 12.3473ZM1.80859 13.1473L1.80859 17.9473L3.80859 17.9473L3.80859 13.1473L1.80859 13.1473ZM14.8086 17.9473V13.1473H12.8086V17.9473H14.8086ZM2.80859 18.9473H13.8086V16.9473H2.80859V18.9473Z" fill="black"/>
</svg>
