<svg width="32" height="32" viewBox="0 0 32 32" fill="none" xmlns="http://www.w3.org/2000/svg">
<rect x="0.765625" y="0.393555" width="30.9767" height="31.0536" rx="15.4884" fill="white"/>
<path d="M15.6719 18.858C15.6719 19.4103 16.1196 19.858 16.6719 19.858C17.2242 19.858 17.6719 19.4103 17.6719 18.858L15.6719 18.858ZM17.379 7.24016C16.9885 6.84963 16.3553 6.84963 15.9648 7.24016L9.60081 13.6041C9.21028 13.9946 9.21028 14.6278 9.60081 15.0183C9.99133 15.4089 10.6245 15.4089 11.015 15.0183L16.6719 9.36148L22.3287 15.0183C22.7193 15.4089 23.3524 15.4089 23.7429 15.0183C24.1335 14.6278 24.1335 13.9946 23.7429 13.6041L17.379 7.24016ZM17.6719 18.858L17.6719 7.94727L15.6719 7.94727L15.6719 18.858L17.6719 18.858Z" fill="black"/>
<path d="M10.8086 19.6973L10.8086 24.733L18.297 24.733L22.5295 24.733L22.5295 19.6973" stroke="black" stroke-width="2" stroke-linecap="round"/>
</svg>
